<?xml version="1.0" encoding="UTF-8"?>
<svg version="1.1" xmlns="http://www.w3.org/2000/svg" width="273" height="245">
<path d="M0 0 C3.14651651 1.57325825 3.90014368 4.6628286 5.25 7.75 C5.54390625 8.37132813 5.8378125 8.99265625 6.140625 9.6328125 C8.20090188 14.32786655 8.20090188 14.32786655 7.2956543 17.35644531 C5.83218964 20.34238753 4.15214536 23.0387514 2.31640625 25.8125 C1.94928024 26.37009003 1.58215424 26.92768005 1.2039032 27.50216675 C-0.00580353 29.33751747 -1.22168159 31.1686935 -2.4375 33 C-3.29181798 34.29411894 -4.14565105 35.5885581 -4.99902344 36.88330078 C-6.77529156 39.57742533 -8.55364641 42.27015441 -10.33349609 44.96191406 C-14.09149634 50.64863787 -17.82502018 56.35136652 -21.55813599 62.05444336 C-22.75564146 63.88361726 -23.95378281 65.71237315 -25.15209961 67.54101562 C-30.53714989 75.75949126 -35.90886397 83.98659657 -41.27148438 92.21972656 C-44.85412361 97.71762537 -48.44657355 103.20897144 -52.046875 108.6953125 C-52.47871094 109.35356018 -52.91054687 110.01180786 -53.35546875 110.69000244 C-55.48380894 113.93411067 -57.61313454 117.17756421 -59.74414062 120.41992188 C-60.52217615 121.60544202 -61.30017281 122.79098767 -62.078125 123.9765625 C-62.76293945 125.01893066 -63.44775391 126.06129883 -64.15332031 127.13525391 C-65.82443397 129.72764518 -67.42004425 132.35154564 -69 135 C-67.82111206 135.04553764 -67.82111206 135.04553764 -66.6184082 135.09199524 C-52.1725799 135.81888933 -37.83437476 137.64722769 -23.47676468 139.33659911 C-19.57851387 139.79444101 -15.6797228 140.24764011 -11.78100586 140.70149231 C-5.20424874 141.46777559 1.37212056 142.23731624 7.94824219 143.0090332 C14.59178424 143.78864366 21.2356393 144.56550153 27.87988281 145.33911133 C65.607226 149.73190706 103.32359225 154.18587576 141 159 C141 159.33 141 159.66 141 160 C55.2 160 -30.6 160 -119 160 C-114.50255371 152.12946899 -114.50255371 152.12946899 -111.86328125 148.80078125 C-111.29053467 148.07262207 -110.71778809 147.34446289 -110.12768555 146.59423828 C-109.52867432 145.84126465 -108.92966309 145.08829102 -108.3125 144.3125 C-107.05391119 142.71285007 -105.79609875 141.112589 -104.5390625 139.51171875 C-103.93094727 138.73876465 -103.32283203 137.96581055 -102.69628906 137.16943359 C-99.05046118 132.5066779 -95.53288564 127.74857443 -92 123 C-90.60452819 121.14556123 -89.20868174 119.29140433 -87.8125 117.4375 C-84.4766297 112.9935609 -81.17630535 108.52485954 -77.88696289 104.04638672 C-72.49362812 96.7037147 -67.05167881 89.41377313 -61.47265625 82.2109375 C-57.14400314 76.60997019 -52.92649662 70.92424984 -48.6875 65.25537109 C-44.91486757 60.21318672 -41.13364412 55.17743525 -37.35449219 50.14013672 C-34.77045387 46.69541589 -32.18702649 43.25028545 -29.609375 39.80078125 C-26.14553071 35.16689796 -22.66050868 30.55147768 -19.14453125 25.95703125 C-18.44320068 25.03978271 -17.74187012 24.12253418 -17.01928711 23.17749023 C-15.63002358 21.36178306 -14.23901913 19.54740607 -12.84594727 17.73461914 C-8.40402851 11.92916011 -4.14401839 6.02165071 0 0 Z " fill="#A23F8E" transform="translate(130,78)"/>
<path d="M0 0 C2.8455204 3.40833646 5.18211602 6.83466984 7.36328125 10.69921875 C8.31098389 12.36936035 8.31098389 12.36936035 9.27783203 14.07324219 C9.77455414 14.95562561 9.77455414 14.95562561 10.28131104 15.85583496 C11.69401158 18.36516574 13.11650093 20.86890297 14.53820801 23.37313843 C15.27366346 24.66893019 16.00860393 25.96501438 16.74304199 27.26138306 C20.33957763 33.60869686 23.97663388 39.93234363 27.625 46.25 C28.2422998 47.31968018 28.85959961 48.38936035 29.49560547 49.49145508 C33.62080215 56.63230158 37.7742169 63.75631081 41.9375 70.875 C47.67743193 80.69144507 53.3332328 90.55465394 58.96630859 100.43261719 C64.69423714 110.47567837 70.4635487 120.49443324 76.25 130.50390625 C78.52030139 134.43203056 80.78388489 138.36385098 83.03822327 142.30114746 C84.05503531 144.07680815 85.07311513 145.85173609 86.09155273 147.62646484 C87.36437239 149.84542482 88.63488452 152.06571075 89.90258789 154.28759766 C92.48071132 158.77630429 95.0821716 163.20193724 97.9921875 167.484375 C101.65390056 172.87622176 104.83866512 178.52663725 108.0625 184.1875 C109.3765602 186.4823788 110.69135906 188.77680832 112.0078125 191.0703125 C112.33802902 191.64602493 112.66824554 192.22173737 113.00846863 192.81489563 C116.97820086 199.72306656 121.05112378 206.5701395 125.13891602 213.40893555 C125.64865967 214.26527588 126.15840332 215.12161621 126.68359375 216.00390625 C127.13275146 216.75486572 127.58190918 217.5058252 128.04467773 218.27954102 C129 220 129 220 129 221 C117.50116197 220.41688813 106.13320965 219.30194006 94.70776367 217.89868164 C92.93693994 217.68465881 91.16606954 217.47102181 89.39515686 217.25773621 C84.63930496 216.68364341 79.88419283 216.10363924 75.12925506 215.52202916 C71.14994001 215.03575186 67.17029688 214.55218836 63.19066316 214.06852716 C53.81105532 212.92843918 44.43207896 211.78325718 35.0534668 210.63500977 C25.38045574 209.45082621 15.70632457 208.27612844 6.03162211 207.10585123 C-2.29380106 206.09840657 -10.61845596 205.08478011 -18.94252795 204.06623167 C-23.90677817 203.45888404 -28.87129688 202.85398969 -33.83658791 202.25520515 C-38.49232117 201.69351108 -43.14705084 201.12413939 -47.80111122 200.54875374 C-49.51044426 200.33875619 -51.22011907 200.13151998 -52.93014145 199.92721176 C-55.25887933 199.64854657 -57.58619129 199.36005422 -59.91340637 199.06898499 C-61.21724179 198.90989182 -62.52107721 198.75079866 -63.8644228 198.5868845 C-67 198 -67 198 -70 196 C-68.62825183 193.79063568 -67.21406739 191.64700126 -65.75 189.5 C-65.37359375 188.87996094 -64.9971875 188.25992188 -64.609375 187.62109375 C-63.19715749 185.61309697 -62.03461705 184.38878825 -60 183 C-57.49221706 182.7002573 -57.49221706 182.7002573 -54.58164978 182.78309631 C-52.97430371 182.82205615 -52.97430371 182.82205615 -51.33448601 182.86180305 C-50.23410563 182.90740805 -49.13372524 182.95301304 -48 183 C-46.99003023 183.03962797 -45.98006046 183.07925594 -44.93948555 183.12008476 C-41.73608369 183.26569948 -38.53562011 183.44220796 -35.33422852 183.62670898 C-34.13106491 183.69337769 -32.92790131 183.76004639 -31.6882782 183.82873535 C-28.4282773 184.01014993 -25.1684636 184.1945462 -21.90872312 184.38057208 C-19.17729786 184.53602394 -16.44575195 184.68929456 -13.7142033 184.84256035 C-7.27292069 185.2039821 -0.83183345 185.56874331 5.60913086 185.93579102 C12.24258745 186.31376227 18.87631446 186.68667597 25.51019996 187.05703682 C31.22612132 187.37628985 36.94188068 187.6983314 42.65751511 188.02268082 C46.06287428 188.21592001 49.4682807 188.40818763 52.87383842 188.59789848 C56.66276121 188.80977984 60.45139605 189.02622913 64.23999023 189.24389648 C65.36265289 189.30575638 66.48531555 189.36761627 67.64199829 189.43135071 C68.6748848 189.49162445 69.7077713 189.55189819 70.7719574 189.61399841 C71.66618125 189.66469703 72.5604051 189.71539564 73.48172665 189.76763058 C76.04275716 190.00394534 78.48918138 190.45020728 81 191 C77.48169388 182.76975154 73.96054949 174.54071898 70.4375 166.3125 C70.16874683 165.68478951 69.89999367 165.05707901 69.62309647 164.41034698 C61.15022417 144.6225786 52.6128256 124.86392145 44.02377319 105.12625122 C35.57108823 85.69459283 27.24182423 66.21183517 18.97436523 46.70068359 C18.08205904 44.59724989 17.18956546 42.49389566 16.296875 40.390625 C15.86762222 39.37799591 15.43836945 38.36536682 14.99610901 37.322052 C12.66940906 31.85283414 10.30163634 26.40463423 7.88476562 20.97460938 C7.37391418 19.82555115 6.86306274 18.67649292 6.33673096 17.49261475 C5.3509432 15.28186096 4.36022363 13.07329793 3.36395264 10.86724854 C2.92319397 9.87948425 2.4824353 8.89171997 2.02832031 7.87402344 C1.63590149 7.00308044 1.24348267 6.13213745 0.83917236 5.23480225 C0 3 0 3 0 0 Z " fill="#FBA823" transform="translate(138,9)"/>
<path d="M0 0 C2.81755039 3.37029074 4.47214413 7.0472618 6.15234375 11.0625 C6.44836487 11.75746078 6.74438599 12.45242157 7.04937744 13.16844177 C8.01714125 15.44351823 8.97728033 17.7217305 9.9375 20 C10.61247614 21.59016336 11.28801937 23.18008612 11.96411133 24.76977539 C13.33201487 27.98758467 14.69733117 31.20647157 16.06054688 34.42626953 C18.748972 40.77217634 21.46826214 47.10474165 24.1875 53.4375 C25.17463632 55.74081807 26.16161679 58.04420294 27.1484375 60.34765625 C28.9645016 64.58534324 30.78218863 68.82232678 32.6015625 73.05859375 C40.62062315 91.73840889 48.58338077 110.4421407 56.54101562 129.14819336 C62.78259193 143.8189147 62.78259193 143.8189147 69.08203125 158.46484375 C69.3707309 159.13335358 69.65943054 159.8018634 69.95687866 160.4906311 C71.20810911 163.38739486 72.46317355 166.28234264 73.7265625 169.17382812 C75.84438292 174.06841929 77.6972814 178.82511229 79 184 C76.93690624 183.88521587 74.87451646 183.75773802 72.8125 183.625 C71.66394531 183.55539063 70.51539063 183.48578125 69.33203125 183.4140625 C65.9191483 182.98995278 63.97290169 182.71287321 61 181 C59.1289854 178.44299877 57.79273146 175.65436529 56.40625 172.8125 C55.98041626 171.97170898 55.55458252 171.13091797 55.11584473 170.26464844 C53.72883894 167.51704645 52.36440012 164.75888678 51 162 C50.06782947 160.14381583 49.1342286 158.2883493 48.19921875 156.43359375 C44.78594531 149.64868646 41.4094729 142.84561619 38.03173828 136.04296875 C32.69402263 125.29994891 27.30446605 114.59646343 21.6847229 103.99794006 C17.38283351 95.87067811 13.23987477 87.66586235 9.12792969 79.44116211 C7.84482326 76.87719944 6.55526957 74.31653857 5.265625 71.75585938 C4.44492426 70.11738191 3.6245964 68.4787176 2.8046875 66.83984375 C2.42045624 66.07856674 2.03622498 65.31728973 1.64035034 64.53294373 C-1 59.22890787 -1 59.22890787 -1 57 C-5.84732255 61.50979138 -9.71013363 66.66048186 -13.6875 71.9375 C-14.40156006 72.87972412 -15.11562012 73.82194824 -15.85131836 74.79272461 C-20.0596998 80.36562597 -24.18911822 85.98367866 -28.21069336 91.69238281 C-32.41368365 97.63845693 -36.80506216 103.44084712 -41.18505859 109.25708008 C-45.55442164 115.06259272 -49.88558672 120.89435234 -54.1875 126.75 C-58.90692569 133.17249421 -63.66279541 139.56532544 -68.45507812 145.93359375 C-73.01160305 151.99685799 -77.50684717 158.10454324 -82 164.21484375 C-85.83835127 169.43193761 -89.7100318 174.62223148 -93.60546875 179.796875 C-96.69655209 183.93176626 -99.75385586 188.09108557 -102.8125 192.25 C-107.40549773 198.48744273 -111.99957579 204.72404958 -116.625 210.9375 C-117.1094458 211.59331055 -117.5938916 212.24912109 -118.09301758 212.92480469 C-120.53735677 216.19772613 -123.00679326 219.19650355 -126 222 C-124.34586536 217.46872691 -122.10288094 213.38144146 -119.75 209.1875 C-119.09898315 208.02093872 -119.09898315 208.02093872 -118.43481445 206.83081055 C-114.17924699 199.24531535 -109.78429344 191.74217922 -105.38574219 184.23901367 C-101.35948115 177.36126993 -97.40496126 170.44725397 -93.5 163.5 C-89.09492788 155.66362969 -84.61161983 147.87860683 -80.0625 140.125 C-74.57664351 130.77230233 -69.24630393 121.3410672 -63.97119141 111.86816406 C-60.31621516 105.31618917 -56.58077069 98.82276953 -52.74804688 92.37353516 C-49.33166859 86.60805073 -46.03465956 80.77885168 -42.75 74.9375 C-38.26102634 66.95563064 -33.69695142 59.02324991 -29.0625 51.125 C-22.95530526 40.71000613 -17.0338178 30.19825931 -11.15625 19.65234375 C-7.48845728 13.07208612 -3.76021976 6.52783492 0 0 Z " fill="#E1459F" transform="translate(131,12)"/>
<path d="M0 0 C2.92772186 3.47986045 4.62899564 7.3572075 6.390625 11.50390625 C6.69949646 12.22360092 7.00836792 12.94329559 7.32659912 13.68479919 C7.97481794 15.20067712 8.62012822 16.71780171 9.26269531 18.23608398 C10.25006764 20.56265939 11.25342476 22.88190018 12.2578125 25.20117188 C12.88640201 26.67666395 13.51403951 28.15256203 14.140625 29.62890625 C14.59359955 30.66961021 14.59359955 30.66961021 15.0557251 31.7313385 C17.11450203 36.65649392 17.11450203 36.65649392 16 40 C13.9052128 41.6345241 11.82114502 43.13965956 9.625 44.625 C-0.00654578 51.32745315 -8.86287547 58.52616687 -17 67 C-22 72 -22 72 -23.47265625 73.3671875 C-43.28563072 92.19653913 -58.56373603 119.1005537 -68.32421875 144.4375 C-70.49815457 149.05901391 -73.35918871 152.8807849 -76.4375 156.9375 C-77.06076172 157.77087891 -77.68402344 158.60425781 -78.32617188 159.46289062 C-80.21086408 161.98028724 -82.10468845 164.49059337 -84 167 C-85.0332001 168.37581568 -86.06579766 169.75208416 -87.09765625 171.12890625 C-88.55005735 173.06665442 -90.0029902 175.00397509 -91.45874023 176.93920898 C-95.33957879 182.10148672 -99.17429744 187.29677267 -103 192.5 C-107.53017942 198.65435952 -112.06167425 204.80765944 -116.625 210.9375 C-117.1096875 211.59363281 -117.594375 212.24976563 -118.09375 212.92578125 C-120.53783215 216.19836582 -123.00710479 219.19679533 -126 222 C-124.34586536 217.46872691 -122.10288094 213.38144146 -119.75 209.1875 C-119.09898315 208.02093872 -119.09898315 208.02093872 -118.43481445 206.83081055 C-114.17924699 199.24531535 -109.78429344 191.74217922 -105.38574219 184.23901367 C-101.35948115 177.36126993 -97.40496126 170.44725397 -93.5 163.5 C-89.09492788 155.66362969 -84.61161983 147.87860683 -80.0625 140.125 C-74.57664351 130.77230233 -69.24630393 121.3410672 -63.97119141 111.86816406 C-60.31621516 105.31618917 -56.58077069 98.82276953 -52.74804688 92.37353516 C-49.33166859 86.60805073 -46.03465956 80.77885168 -42.75 74.9375 C-38.26102634 66.95563064 -33.69695142 59.02324991 -29.0625 51.125 C-22.95530526 40.71000613 -17.0338178 30.19825931 -11.15625 19.65234375 C-7.48845728 13.07208612 -3.76021976 6.52783492 0 0 Z " fill="#5B2398" transform="translate(131,12)"/>
<path d="M0 0 C1.07326538 0.0260733 2.14653076 0.05214661 3.25231934 0.07901001 C11.36519314 0.42924378 19.4721785 0.84266066 27.57958984 1.30249023 C29.55629234 1.41242255 31.53300768 1.52212401 33.50973511 1.63160706 C37.63323785 1.86071037 41.75660482 2.09208274 45.87988281 2.32519531 C51.14257439 2.62261459 56.4055252 2.91511336 61.66858101 3.20600796 C65.74377926 3.4316625 69.81885096 3.65953781 73.89388657 3.88810921 C75.83376676 3.99673037 77.77367978 4.10476693 79.71362686 4.21218681 C82.43095761 4.36306646 85.14810962 4.51684699 87.86523438 4.67138672 C89.04537613 4.73612434 89.04537613 4.73612434 90.24935913 4.8021698 C95.87478368 5.12644465 101.46901266 5.64682766 107.07177734 6.24389648 C106.78059021 7.10917969 106.78059021 7.10917969 106.48352051 7.99194336 C105.69871971 10.32535284 104.91654124 12.65963535 104.13427734 14.99389648 C103.85648437 15.81889648 103.57869141 16.64389648 103.29248047 17.49389648 C103.025 18.29311523 102.75751953 19.09233398 102.48193359 19.91577148 C102.23580322 20.64892578 101.98967285 21.38208008 101.73608398 22.13745117 C101.09841905 24.15941847 100.57688318 26.18554861 100.07177734 28.24389648 C87.77339514 27.56228742 75.59376355 26.0813451 63.37255859 24.59155273 C61.20257918 24.3286594 59.03259103 24.06583818 56.8625946 23.80308533 C52.34485019 23.25505722 47.82747642 22.70407872 43.31030273 22.15136719 C37.51636183 21.4429811 31.72118323 20.74531092 25.92564106 20.05016422 C21.45812018 19.51257008 16.99150135 18.96775914 12.52510643 18.42089653 C10.38714402 18.16032582 8.24885828 17.90239394 6.11025429 17.64714241 C3.13461138 17.29122208 0.16037573 16.92522927 -2.8137207 16.55664062 C-3.69731262 16.45319336 -4.58090454 16.34974609 -5.49127197 16.24316406 C-6.29975082 16.14089005 -7.10822968 16.03861603 -7.94120789 15.9332428 C-8.99381318 15.80521821 -8.99381318 15.80521821 -10.06768322 15.67460728 C-11.92822266 15.24389648 -11.92822266 15.24389648 -14.92822266 13.24389648 C-13.55647448 11.03453217 -12.14229004 8.89089775 -10.67822266 6.74389648 C-10.30181641 6.12385742 -9.92541016 5.50381836 -9.53759766 4.86499023 C-6.80029514 0.97288822 -4.76747258 -0.12559897 0 0 Z " fill="#F03341" transform="translate(82.92822265625,191.756103515625)"/>
<path d="M0 0 C2.8455204 3.40833646 5.18211602 6.83466984 7.36328125 10.69921875 C7.99508301 11.81264648 8.62688477 12.92607422 9.27783203 14.07324219 C9.6089801 14.6614978 9.94012817 15.24975342 10.28131104 15.85583496 C11.69401158 18.36516574 13.11650093 20.86890297 14.53820801 23.37313843 C15.27366346 24.66893019 16.00860393 25.96501438 16.74304199 27.26138306 C20.33957763 33.60869686 23.97663388 39.93234363 27.625 46.25 C28.2422998 47.31968018 28.85959961 48.38936035 29.49560547 49.49145508 C33.62080215 56.63230158 37.7742169 63.75631081 41.9375 70.875 C47.67146977 80.68124857 53.3215872 90.53410523 58.94873047 100.40185547 C63.63209762 108.61355528 68.3375549 116.81215112 73.0625 125 C73.65732178 126.03108887 74.25214355 127.06217773 74.86499023 128.12451172 C75.43677002 129.11467285 76.0085498 130.10483398 76.59765625 131.125 C77.1508252 132.08535156 77.70399414 133.04570312 78.27392578 134.03515625 C79.49657996 136.1352853 80.73629226 138.225526 81.98779297 140.30859375 C82.62990723 141.38238281 83.27202148 142.45617187 83.93359375 143.5625 C84.52068115 144.53316406 85.10776855 145.50382813 85.71264648 146.50390625 C87 149 87 149 87 152 C84.8046875 153.6484375 84.8046875 153.6484375 81.875 155.375 C77.57317102 157.98940187 73.75140123 160.65415566 70 164 C66.10588893 156.48138851 62.69079294 148.81064924 59.390625 141.015625 C58.86436162 139.77917773 58.33776373 138.5428728 57.81085205 137.30670166 C56.7305656 134.77151762 55.6517173 132.23572932 54.57397461 129.69946289 C52.20279218 124.12226406 49.81146211 118.55370638 47.421875 112.984375 C46.49054505 110.8114833 45.55931249 108.63854985 44.62817383 106.46557617 C42.64384277 101.83544197 40.6592682 97.20541223 38.67456055 92.57543945 C37.61504405 90.1036902 36.5555579 87.63192794 35.49609375 85.16015625 C35.23188314 84.54374582 34.96767254 83.9273354 34.69545555 83.29224586 C31.11380255 74.93582136 27.53496966 66.57819464 23.95858765 58.21951294 C22.03694495 53.7282841 20.11451227 49.23739354 18.19190788 44.74657631 C16.88170446 41.68603191 15.57210228 38.62523339 14.26330566 35.56408691 C12.80815909 32.16073729 11.3514971 28.75803986 9.89453125 25.35546875 C9.47156265 24.36510117 9.04859406 23.37473358 8.61280823 22.35435486 C6.1538662 16.61651666 3.60106703 10.93874317 0.92167664 5.30000305 C0 3 0 3 0 0 Z " fill="#F13644" transform="translate(138,9)"/>
<path d="M0 0 C37.89084276 4.29654279 75.77437464 8.65282371 113.6475563 13.10254669 C116.50069576 13.4375817 119.35390071 13.77205384 122.2071228 14.10638428 C126.72187534 14.63552526 131.23644067 15.16623557 135.75086021 15.69820976 C137.41897767 15.89458484 139.08715001 16.09049441 140.75538063 16.28590584 C143.04607041 16.55437233 145.33653641 16.82467407 147.62695312 17.09545898 C148.91251099 17.24675766 150.19806885 17.39805634 151.52258301 17.55393982 C154.6986693 17.96134728 157.84598436 18.44915415 161 19 C161 19.33 161 19.66 161 20 C107.21 20 53.42 20 -2 20 C-1.34 19.67 -0.68 19.34 0 19 C0 12.73 0 6.46 0 0 Z " fill="#F5799D" transform="translate(110,218)"/>
<path d="M0 0 C3 1 3 1 4.23706055 2.60717773 C5.42065355 5.23835214 5.94037995 7.09696222 6 10 C3.93753097 14.81398844 0.89522295 18.86768311 -2.1875 23.0625 C-3.0412926 24.27163497 -3.89170506 25.4831636 -4.73876953 26.69702148 C-6.40275785 29.07828962 -8.07857775 31.45038317 -9.76416016 33.81640625 C-12.45406291 37.6465364 -14.95141183 41.56066454 -17.375 45.5625 C-21.17070071 51.74019656 -25.14787313 57.77948833 -29.18896484 63.79907227 C-33.34632072 69.99823375 -37.43112933 76.24246816 -41.5 82.5 C-51.07357195 97.19674658 -51.07357195 97.19674658 -55.8125 104.375 C-56.31007813 105.13619141 -56.80765625 105.89738281 -57.3203125 106.68164062 C-60.76967855 111.88483928 -60.76967855 111.88483928 -63 113 C-57.76811468 80.562311 -43.0202757 49.18835865 -22 24 C-21.525625 23.42556152 -21.05125 22.85112305 -20.5625 22.25927734 C-14.07916067 14.43579463 -7.33380833 7.04175401 0 0 Z " fill="#8D357C" transform="translate(132,85)"/>
<path d="M0 0 C4.95 11.88 4.95 11.88 10 24 C6.73322332 27.26677668 3.62622322 29.89159667 -0.0625 32.625 C-1.10535156 33.40101562 -2.14820313 34.17703125 -3.22265625 34.9765625 C-5.11941544 36.35844894 -7.04737356 37.69824904 -9 39 C-10.67333158 35.87852455 -12.33751716 32.75226502 -14 29.625 C-14.47695312 28.73554687 -14.95390625 27.84609375 -15.4453125 26.9296875 C-16.12207031 25.65351562 -16.12207031 25.65351562 -16.8125 24.3515625 C-17.23144531 23.56604004 -17.65039062 22.78051758 -18.08203125 21.97119141 C-19 20 -19 20 -19 18 C-23.84732255 22.50979138 -27.71013363 27.66048186 -31.6875 32.9375 C-32.40156006 33.87972412 -33.11562012 34.82194824 -33.85131836 35.79272461 C-38.0596998 41.36562597 -42.18911822 46.98367866 -46.21069336 52.69238281 C-50.4094563 58.63247639 -54.79620485 64.42917674 -59.171875 70.23950195 C-64.24478841 76.97968729 -69.26383215 83.75782279 -74.25683594 90.55737305 C-77.80917601 95.39345311 -81.39031448 100.20655832 -85 105 C-86.25912158 101.22263526 -85.5656022 100.43243742 -83.89453125 96.90625 C-83.41169678 95.8850708 -82.9288623 94.8638916 -82.43139648 93.81176758 C-81.89716064 92.71888428 -81.3629248 91.62600098 -80.8125 90.5 C-80.26730713 89.37811279 -79.72211426 88.25622559 -79.16040039 87.1003418 C-69.6782114 67.94934409 -57.76748121 50.98697744 -43.19140625 35.40234375 C-41.71591909 33.78483109 -40.29871452 32.11241478 -38.94140625 30.39453125 C-37.19580997 28.2415121 -35.48708718 26.52954579 -33.375 24.75 C-31.15593566 22.86359247 -28.97228836 20.97380266 -26.85546875 18.97265625 C-21.55348984 13.97777663 -15.93327192 9.64378041 -10 5.4375 C-9.24533447 4.90036377 -8.49066895 4.36322754 -7.71313477 3.80981445 C-7.00342529 3.31441162 -6.29371582 2.81900879 -5.5625 2.30859375 C-4.92441406 1.86314209 -4.28632813 1.41769043 -3.62890625 0.95874023 C-2 0 -2 0 0 0 Z " fill="#903980" transform="translate(149,51)"/>
<path d="M0 0 C2.59097543 3.15307408 4.13270698 6.31849674 5.69921875 10.078125 C6.18583984 11.23828125 6.67246094 12.3984375 7.17382812 13.59375 C7.67333984 14.8003125 8.17285156 16.006875 8.6875 17.25 C9.20326192 18.48458991 9.71953278 19.71896733 10.23632812 20.953125 C11.49590729 23.96669758 12.75025241 26.98234 14 30 C10.55416882 32.7707222 7.06299765 35.44408826 3.5 38.0625 C-10.25666307 48.36313864 -24.06567638 59.69177717 -35 73 C-36.26607716 74.51248141 -37.53215948 76.0249585 -38.79833984 77.53735352 C-40.87229767 80.01930931 -42.93526631 82.51036934 -45 85 C-46.66565172 87.00084834 -48.33274811 89.00048439 -50 91 C-50 87.47400087 -49.15383374 86.12846975 -47.4296875 83.08203125 C-46.87023437 82.08751953 -46.31078125 81.09300781 -45.734375 80.06835938 C-45.12078125 78.99392578 -44.5071875 77.91949219 -43.875 76.8125 C-43.24335937 75.69552734 -42.61171875 74.57855469 -41.9609375 73.42773438 C-37.13718401 64.92395465 -32.2152856 56.47821266 -27.26660156 48.04663086 C-21.76573671 38.65432786 -16.45505591 29.15965065 -11.15625 19.65234375 C-7.48845728 13.07208612 -3.76021976 6.52783492 0 0 Z " fill="#6E28BB" transform="translate(131,12)"/>
<path d="M0 0 C3 1 3 1 4.06620789 2.77670288 C4.39071426 3.55212433 4.71522064 4.32754578 5.04956055 5.12646484 C5.42392746 6.00603851 5.79829437 6.88561218 6.18400574 7.7918396 C6.58090103 8.75514191 6.97779633 9.71844421 7.38671875 10.7109375 C7.80742142 11.70767487 8.22812408 12.70441223 8.66157532 13.73135376 C10.01380892 16.94170377 11.35083327 20.15814169 12.6875 23.375 C13.56866241 25.47437794 14.45081326 27.5733413 15.33398438 29.671875 C17.06748326 33.79492414 18.7933747 37.9210274 20.51318359 42.04980469 C22.13611349 45.9425893 23.77386745 49.82847528 25.42822266 53.70800781 C25.8034053 54.58985748 26.17858795 55.47170715 26.56513977 56.38027954 C27.2673336 58.02862195 27.97225781 59.67580479 28.68034363 61.32162476 C31 66.7774286 31 66.7774286 31 69 C28.93690624 68.88521587 26.87451646 68.75773802 24.8125 68.625 C23.66394531 68.55539063 22.51539063 68.48578125 21.33203125 68.4140625 C15.81897213 67.72896957 15.81897213 67.72896957 13 66 C11.33749556 63.46168454 10.00770104 61.08596899 8.6875 58.375 C8.28233154 57.57118896 7.87716309 56.76737793 7.4597168 55.93920898 C6.52115655 54.07284122 5.58949998 52.20299291 4.66308594 50.33056641 C3.0902138 47.18066598 1.48666631 44.04893088 -0.12867737 40.92071533 C-1.61932701 38.03047897 -3.09852397 35.13446919 -4.57577515 32.23736572 C-5.31632988 30.78861956 -6.06032679 29.34162773 -6.80776978 27.89642334 C-7.86670588 25.84425809 -8.90969205 23.78470648 -9.94921875 21.72265625 C-10.27264252 21.10355881 -10.59606628 20.48446136 -10.92929077 19.84660339 C-12.16973621 17.35412866 -13.04405114 15.53707836 -12.81323242 12.72290039 C-11.57051988 10.09011071 -9.70715632 8.38977262 -7.625 6.375 C-6.83351562 5.59898437 -6.04203125 4.82296875 -5.2265625 4.0234375 C-3 2 -3 2 0 0 Z " fill="#F23846" transform="translate(179,127)"/>
<path d="M0 0 C1.38756905 4.50272406 0.24695399 8.26327805 -0.75 12.75 C-3.79779021 27.37061663 -4.7345915 42.13145009 -6 57 C-17.88 57 -29.76 57 -42 57 C-37.50255371 49.12946899 -37.50255371 49.12946899 -34.86328125 45.80078125 C-34.29053467 45.07262207 -33.71778809 44.34446289 -33.12768555 43.59423828 C-32.52867432 42.84126465 -31.92966309 42.08829102 -31.3125 41.3125 C-30.05391119 39.71285007 -28.79609875 38.112589 -27.5390625 36.51171875 C-26.93094727 35.73876465 -26.32283203 34.96581055 -25.69628906 34.16943359 C-22.05047785 29.50669922 -18.53208877 24.74913809 -15 20 C-13.4383358 17.91604008 -11.87583088 15.83270991 -10.3125 13.75 C-9.21035156 12.28046875 -9.21035156 12.28046875 -8.0859375 10.78125 C-5.390625 7.1875 -2.6953125 3.59375 0 0 Z " fill="#6628A3" transform="translate(53,181)"/>
<path d="M0 0 C1.36774439 0.07074756 2.73577631 0.13608807 4.10400391 0.19677734 C7.85957831 0.36735361 11.6117342 0.57605391 15.36450195 0.79956055 C17.69393841 0.93788231 20.02367218 1.06990276 22.35351562 1.20117188 C23.86460488 1.28869133 25.3756734 1.37656955 26.88671875 1.46484375 C27.5682048 1.50343002 28.24969086 1.5420163 28.951828 1.58177185 C34.00669903 1.88725875 38.94915788 2.43879532 44 3 C42.68 9.27 41.36 15.54 40 22 C32.3581556 21.13047912 24.71715975 20.2540855 17.07750225 19.36556435 C13.53009193 18.95326599 9.98238683 18.54399223 6.43383789 18.14160156 C2.35456067 17.67889469 -1.72309509 17.20308875 -5.80078125 16.7265625 C-7.07585037 16.58376862 -8.35091949 16.44097473 -9.66462708 16.29385376 C-10.84562485 16.15385956 -12.02662262 16.01386536 -13.2434082 15.86962891 C-14.80560844 15.68975937 -14.80560844 15.68975937 -16.39936829 15.5062561 C-19 15 -19 15 -22 13 C-20.62825183 10.79063568 -19.21406739 8.64700126 -17.75 6.5 C-17.37359375 5.87996094 -16.9971875 5.25992188 -16.609375 4.62109375 C-12.22170957 -1.61761804 -7.0316247 -0.56348992 0 0 Z " fill="#DF4399" transform="translate(90,192)"/>
<path d="M0 0 C2.8455204 3.40833646 5.18211602 6.83466984 7.36328125 10.69921875 C7.99508301 11.81264648 8.62688477 12.92607422 9.27783203 14.07324219 C9.6089801 14.6614978 9.94012817 15.24975342 10.28131104 15.85583496 C11.69401158 18.36516574 13.11650093 20.86890297 14.53820801 23.37313843 C15.27366346 24.66893019 16.00860393 25.96501438 16.74304199 27.26138306 C20.33957757 33.60869674 23.97661863 39.93235251 27.625 46.25 C28.23939941 47.31460449 28.85379883 48.37920898 29.48681641 49.47607422 C34.26855519 57.75308136 39.08667048 66.00858821 43.91113281 74.26074219 C49.67653996 84.13437404 55.34933586 94.06035313 61 104 C51.08403361 112 51.08403361 112 47 112 C46.74817963 111.41167892 46.49635925 110.82335785 46.23690796 110.21720886 C43.7571556 104.42419464 41.27669078 98.63148595 38.79556942 92.83905792 C37.44989344 89.69739594 36.10444049 86.55563883 34.75949097 83.41366577 C28.71643641 69.29692514 22.65725485 55.18761609 16.54296875 41.1015625 C15.52617757 38.75627792 14.5094127 36.41098193 13.49267578 34.06567383 C12.03467971 30.7029892 10.57497378 27.34110175 9.10980225 23.98153687 C7.75778689 20.88143092 6.4115717 17.77886417 5.06640625 14.67578125 C4.66648972 13.76369904 4.26657318 12.85161682 3.85453796 11.91189575 C3.49076553 11.06996674 3.1269931 10.22803772 2.75219727 9.3605957 C2.43597916 8.63459671 2.11976105 7.90859772 1.79396057 7.16059875 C0.92506323 4.79607515 0.43442464 2.47809289 0 0 Z " fill="#F04D98" transform="translate(138,9)"/>
<path d="M0 0 C4.52105337 0.47710511 9.04180096 0.95705003 13.5625 1.4375 C14.83931641 1.57220703 16.11613281 1.70691406 17.43164062 1.84570312 C18.67236328 1.97783203 19.91308594 2.10996094 21.19140625 2.24609375 C22.32779541 2.36654053 23.46418457 2.4869873 24.63500977 2.61108398 C28.09783616 3.01130763 31.54915682 3.5070224 35 4 C35 10.27 35 16.54 35 23 C31.93405406 24.53297297 28.72888147 24.12131455 25.3671875 24.09765625 C24.23943405 24.09553383 24.23943405 24.09553383 23.08889771 24.09336853 C20.6842249 24.08776465 18.27964473 24.07521157 15.875 24.0625 C14.24609509 24.0574855 12.61718873 24.0529225 10.98828125 24.04882812 C6.99215173 24.03779397 2.99609158 24.02052679 -1 24 C-1.10466648 15.92905177 -1.03387512 8.0125322 0 0 Z " fill="#DE4699" transform="translate(75,214)"/>
<path d="M0 0 C6.79813611 -0.09952569 13.34745734 0.21547037 20.09375 1.0234375 C21.4637616 1.18279282 21.4637616 1.18279282 22.8614502 1.34536743 C24.77093957 1.56940093 26.68007951 1.79643179 28.58886719 2.02636719 C31.519029 2.37727888 34.45072229 2.71250526 37.3828125 3.046875 C39.24490345 3.26728683 41.10688705 3.48860789 42.96875 3.7109375 C43.84575562 3.80998383 44.72276123 3.90903015 45.62634277 4.01107788 C51.7707472 4.7707472 51.7707472 4.7707472 54 7 C53.67 9.97 53.34 12.94 53 16 C35.51 16 18.02 16 0 16 C0 10.72 0 5.44 0 0 Z " fill="#E81F66" transform="translate(128,221)"/>
<path d="M0 0 C2.33496094 -0.26464844 2.33496094 -0.26464844 5.234375 -0.109375 C6.28367188 -0.05910156 7.33296875 -0.00882813 8.4140625 0.04296875 C9.51492187 0.11128906 10.61578125 0.17960938 11.75 0.25 C12.83539063 0.30285156 13.92078125 0.35570312 15.0390625 0.41015625 C20.10442379 0.6764283 25.00215196 1.10323481 30 2 C29.18595703 3.61068359 29.18595703 3.61068359 28.35546875 5.25390625 C27.63270385 6.69004949 26.91005372 8.1262505 26.1875 9.5625 C25.83107422 10.26697266 25.47464844 10.97144531 25.10742188 11.69726562 C22.90907591 16.07378925 20.88336074 20.47874598 19 25 C-3.82706767 23.58646617 -3.82706767 23.58646617 -7 22 C-6.30884575 14.3973032 -4.25361614 6.38042421 0 0 Z " fill="#F17323" transform="translate(190,198)"/>
<path d="M0 0 C2.56858966 2.33993182 4.20039283 4.81287992 5.9375 7.8125 C7.64697998 10.74547314 9.3708114 13.57367999 11.375 16.3125 C13.22474561 19.37169466 13.6122022 20.50469171 13 24 C10.55078125 26.24609375 10.55078125 26.24609375 7.3125 28.4375 C2.83416218 31.56565435 -0.80163211 34.54513044 -4 39 C-7 38 -7 38 -8.25854492 35.68334961 C-8.66177979 34.68311768 -9.06501465 33.68288574 -9.48046875 32.65234375 C-9.92197266 31.57275391 -10.36347656 30.49316406 -10.81835938 29.38085938 C-11.27017578 28.24455078 -11.72199219 27.10824219 -12.1875 25.9375 C-12.65091797 24.79732422 -13.11433594 23.65714844 -13.59179688 22.48242188 C-14.7377908 19.65878737 -15.87332398 16.83138581 -17 14 C-13.43277969 9.50750732 -10.10804973 6.04017606 -5.125 3.0625 C-4.15820312 2.47597656 -3.19140625 1.88945312 -2.1953125 1.28515625 C-1.47085938 0.86105469 -0.74640625 0.43695313 0 0 Z " fill="#F06728" transform="translate(225,160)"/>
<path d="M0 0 C1.28041596 2.56083192 0.80666807 3.19904303 -0.07421875 5.8671875 C-0.32776123 6.65891357 -0.58130371 7.45063965 -0.8425293 8.26635742 C-1.12136963 9.12720947 -1.40020996 9.98806152 -1.6875 10.875 C-8.20018485 32.00869061 -10.28478739 53.05002113 -12 75 C-14.97 75 -17.94 75 -21 75 C-20.7198118 59.32347008 -19.3780982 44.1781556 -16.50488281 28.75512695 C-16.1724664 26.94114281 -15.86890202 25.12159595 -15.59667969 23.29760742 C-14.63942843 17.40584806 -12.97023275 13.60839469 -9.125 9.0625 C-8.69058594 8.51271484 -8.25617187 7.96292969 -7.80859375 7.39648438 C-5.46302226 4.49093411 -3.10880686 2.07494783 0 0 Z " fill="#823575" transform="translate(68,163)"/>
<path d="M0 0 C1.83833819 2.75750729 3.07612141 5.29202532 4.3828125 8.32421875 C4.82753906 9.35224609 5.27226562 10.38027344 5.73046875 11.43945312 C6.19066406 12.51130859 6.65085938 13.58316406 7.125 14.6875 C7.59292969 15.77095703 8.06085938 16.85441406 8.54296875 17.97070312 C9.697948 20.6460122 10.85017961 23.3224706 12 26 C11.28457031 26.55171875 10.56914062 27.1034375 9.83203125 27.671875 C6.93382575 30.05439979 4.32198995 32.58038352 1.6875 35.25 C0.80449219 36.14203125 -0.07851562 37.0340625 -0.98828125 37.953125 C-1.65214844 38.62859375 -2.31601563 39.3040625 -3 40 C-5.25562394 37.13920867 -7.02384557 34.24810972 -8.69921875 31.015625 C-9.18583984 30.08105469 -9.67246094 29.14648438 -10.17382812 28.18359375 C-10.67333984 27.21550781 -11.17285156 26.24742188 -11.6875 25.25 C-12.19861328 24.26644531 -12.70972656 23.28289062 -13.23632812 22.26953125 C-14.4941117 19.84800399 -15.74854136 17.42480035 -17 15 C-16.28199219 14.43796875 -15.56398437 13.8759375 -14.82421875 13.296875 C-11.13564967 10.29704288 -7.68825914 7.06404897 -4.20703125 3.828125 C-2 2 -2 2 0 2 C0 1.34 0 0.68 0 0 Z " fill="#EF4995" transform="translate(169,100)"/>
<path d="M0 0 C12.87 0.495 12.87 0.495 26 1 C26.96049582 4.8419833 27.08807605 5.61887712 26.00390625 9.109375 C25.79838135 9.78967773 25.59285645 10.46998047 25.38110352 11.17089844 C25.11096436 12.02200195 24.8408252 12.87310547 24.5625 13.75 C23.716875 16.4725 22.87125 19.195 22 22 C13.42 21.01 4.84 20.02 -4 19 C-3 8 -3 8 0 0 Z " fill="#DF1D61" transform="translate(134,195)"/>
<path d="M0 0 C3 1 3 1 4.18261719 2.96191406 C5.38571056 5.71922271 6.58273408 8.47728317 7.75 11.25 C8.17410156 12.20519531 8.59820312 13.16039062 9.03515625 14.14453125 C9.43089844 15.07136719 9.82664063 15.99820313 10.234375 16.953125 C10.59756836 17.80036133 10.96076172 18.64759766 11.33496094 19.52050781 C12.11642644 22.43407742 11.89087257 24.13775155 11 27 C9.22265625 29.1328125 9.22265625 29.1328125 7.0625 31.125 C4.63849068 33.38623556 2.85372076 35.21941886 1 38 C-3.48479572 36.50506809 -4.16067717 33.36506537 -6.22265625 29.28710938 C-6.72667969 28.26423828 -7.23070312 27.24136719 -7.75 26.1875 C-8.52923828 24.6705957 -8.52923828 24.6705957 -9.32421875 23.12304688 C-9.81019531 22.14787109 -10.29617187 21.17269531 -10.796875 20.16796875 C-11.46734863 18.82641724 -11.46734863 18.82641724 -12.15136719 17.45776367 C-13.09453656 14.72620843 -13.10093066 13.6356577 -12 11 C-10.0390625 8.7109375 -10.0390625 8.7109375 -7.625 6.375 C-6.83351562 5.59898437 -6.04203125 4.82296875 -5.2265625 4.0234375 C-3 2 -3 2 0 0 Z " fill="#E91F67" transform="translate(179,127)"/>
<path d="M0 0 C2.97878203 3.79600258 4.82697421 7.66644721 6.75 12.0625 C7.24306641 13.14241211 7.24306641 13.14241211 7.74609375 14.24414062 C10.12037628 19.63887117 10.12037628 19.63887117 9 23 C6.76953125 24.65625 6.76953125 24.65625 3.8125 26.5 C-6.84583138 33.40253842 -16.67287181 41.38844514 -26 50 C-26.33 49.34 -26.66 48.68 -27 48 C-25.92700195 45.62768555 -25.92700195 45.62768555 -24.23828125 42.63671875 C-23.61896729 41.53110596 -22.99965332 40.42549316 -22.36157227 39.28637695 C-21.67876096 38.08663018 -20.9957324 36.88700702 -20.3125 35.6875 C-19.62687978 34.4706583 -18.94190643 33.2534519 -18.25756836 32.03588867 C-16.18278656 28.35093214 -14.09242275 24.67495909 -12 21 C-11.37544922 19.90075195 -10.75089844 18.80150391 -10.10742188 17.66894531 C-6.75406033 11.77019463 -3.38653854 5.87976623 0 0 Z " fill="#6025A2" transform="translate(131,12)"/>
<path d="M0 0 C0.495 1.485 0.495 1.485 1 3 C0.04440995 4.69252044 -0.96458063 6.3551035 -2 8 C-3.64326521 12.11342276 -5.06515148 16.30238796 -6.4987793 20.49267578 C-7.18660194 22.49738253 -7.88860886 24.49673264 -8.59179688 26.49609375 C-9.03472113 27.77834669 -9.47680712 29.06088956 -9.91796875 30.34375 C-10.31781982 31.50068359 -10.7176709 32.65761719 -11.12963867 33.84960938 C-11.9387031 36.77812757 -12.03221886 39.00006652 -12 42 C-13.6953125 44.6640625 -13.6953125 44.6640625 -16.125 47.625 C-17.05301041 48.78076573 -17.97865489 49.93843382 -18.90234375 51.09765625 C-19.40362793 51.7230127 -19.90491211 52.34836914 -20.42138672 52.99267578 C-23.26920811 56.61389253 -25.96944222 60.34351515 -28.6875 64.0625 C-33.810862 71.03761978 -38.95084106 77.99995626 -44.125 84.9375 C-44.75237061 85.7838501 -45.37974121 86.6302002 -46.02612305 87.50219727 C-46.61820557 88.29424561 -47.21028809 89.08629395 -47.8203125 89.90234375 C-48.59785889 90.94636353 -48.59785889 90.94636353 -49.39111328 92.01147461 C-51.13069473 94.16153393 -53.01418276 96.07743392 -55 98 C-53.34586536 93.46872691 -51.10288094 89.38144146 -48.75 85.1875 C-48.09898315 84.02093872 -48.09898315 84.02093872 -47.43481445 82.83081055 C-43.17924699 75.24531535 -38.78429344 67.74217922 -34.38574219 60.23901367 C-29.81605493 52.43297782 -25.3507514 44.57269944 -20.91943359 36.6875 C-16.2006825 28.31016411 -11.36342293 20.00430662 -6.4921875 11.71484375 C-5.93402344 10.76351562 -5.37585937 9.8121875 -4.80078125 8.83203125 C-4.30747314 7.99389893 -3.81416504 7.1557666 -3.3059082 6.29223633 C-2.12805988 4.22478113 -1.03954 2.13968651 0 0 Z " fill="#6C31A8" transform="translate(60,136)"/>
<path d="M0 0 C-1.4363992 3.98711254 -3.34730102 7.28242938 -5.68359375 10.8125 C-6.05081039 11.37022598 -6.41802704 11.92795197 -6.79637146 12.50257874 C-8.00598909 14.33779048 -9.22177442 16.16883 -10.4375 18 C-11.29035389 19.29192118 -12.14272223 20.58416301 -12.99462891 21.87670898 C-14.76942342 24.5686421 -16.54631178 27.2591749 -18.32470703 29.94873047 C-22.12526078 35.69976098 -25.90175825 41.46653068 -29.6776123 47.23379517 C-30.86828077 49.05223809 -32.05955969 50.87027977 -33.25097656 52.68823242 C-39.86023233 62.77511338 -46.43899108 72.88167565 -53 83 C-54.46609543 78.60171372 -52.45246887 75.55497551 -50.6875 71.5 C-50.32720703 70.66138428 -49.96691406 69.82276855 -49.59570312 68.95874023 C-38.64653826 43.94773267 -23.82120863 22.66351581 -5 3 C-4.4328125 2.38511719 -3.865625 1.77023438 -3.28125 1.13671875 C-2 0 -2 0 0 0 Z " fill="#C83E8B" transform="translate(138,93)"/>
<path d="M0 0 C3.31272776 0.14091893 6.62511971 0.28865394 9.9375 0.4375 C10.86369141 0.47681641 11.78988281 0.51613281 12.74414062 0.55664062 C14.12182617 0.61948242 14.12182617 0.61948242 15.52734375 0.68359375 C16.77632446 0.73858032 16.77632446 0.73858032 18.05053711 0.79467773 C22.04423816 1.07269301 26.02111949 1.55790217 30 2 C28.68 8.27 27.36 14.54 26 21 C17.42 20.01 8.84 19.02 0 18 C-1.10318677 13.58725292 -0.64855836 11.59423342 0.4375 7.25 C0.72496094 6.07953125 1.01242188 4.9090625 1.30859375 3.703125 C1.53675781 2.81109375 1.76492187 1.9190625 2 1 C1.34 0.67 0.68 0.34 0 0 Z " fill="#EE4593" transform="translate(104,193)"/>
<path d="M0 0 C10.41016444 0.20781128 20.79774449 1.58401985 31.12109375 2.84765625 C32.60177021 3.02593416 34.08248911 3.2038599 35.56324768 3.38145447 C39.40546685 3.84320512 43.24710211 4.30964151 47.08862305 4.77716064 C51.03073622 5.25604483 54.97340007 5.73035101 58.91601562 6.20507812 C66.61121363 7.13231703 74.30579875 8.06452209 82 9 C82 9.33 82 9.66 82 10 C54.61 10 27.22 10 -1 10 C-1 1 -1 1 0 0 Z " fill="#F17323" transform="translate(182,227)"/>
<path d="M0 0 C2.39492535 1.60820069 3.38588294 3.10310345 4.83422852 5.59057617 C5.32213867 6.42782227 5.81004883 7.26506836 6.31274414 8.12768555 C6.80838867 9.00360352 7.3040332 9.87952148 7.81469727 10.78198242 C8.32967773 11.6540332 8.8446582 12.52608398 9.37524414 13.42456055 C12.16875611 18.28983374 12.16875611 18.28983374 13.00219727 20.34448242 C11.65669813 24.38097982 9.64797722 25.2143467 6.12719727 27.53198242 C5.05727539 28.24741211 3.98735352 28.9628418 2.88500977 29.69995117 C0.00219727 31.34448242 0.00219727 31.34448242 -2.99780273 31.34448242 C-4.67037537 27.55539366 -6.33485389 23.76280357 -7.99780273 19.96948242 C-8.71323242 18.34913086 -8.71323242 18.34913086 -9.44311523 16.69604492 C-9.89428711 15.66479492 -10.34545898 14.63354492 -10.81030273 13.57104492 C-11.22924805 12.61794434 -11.64819336 11.66484375 -12.07983398 10.68286133 C-12.99780273 8.34448242 -12.99780273 8.34448242 -12.99780273 6.34448242 C-10.73217773 4.54760742 -10.73217773 4.54760742 -7.74780273 2.59448242 C-6.28600586 1.6122168 -6.28600586 1.6122168 -4.79467773 0.61010742 C-1.99780273 -0.65551758 -1.99780273 -0.65551758 0 0 Z " fill="#E01F65" transform="translate(198.997802734375,114.655517578125)"/>
<path d="M0 0 C2.16575619 3.24863429 3.62352411 6.60622857 5.125 10.1875 C5.54072266 11.16879883 5.54072266 11.16879883 5.96484375 12.16992188 C6.64597045 13.77879012 7.32335403 15.38924215 8 17 C4.89830646 20.27359462 1.55822377 22.94198536 -2.0625 25.625 C-3.62677734 26.78902344 -3.62677734 26.78902344 -5.22265625 27.9765625 C-7.11941544 29.35844894 -9.04737356 30.69824904 -11 32 C-12.39506477 29.59306422 -13.76569383 27.17701201 -15.125 24.75 C-15.52332031 24.06808594 -15.92164063 23.38617188 -16.33203125 22.68359375 C-17.4453125 20.671875 -17.4453125 20.671875 -19 17 C-17.8822635 13.55723892 -15.93483871 11.89167068 -13.0859375 9.765625 C-12.32539063 9.19199219 -11.56484375 8.61835937 -10.78125 8.02734375 C-9.59015625 7.14755859 -9.59015625 7.14755859 -8.375 6.25 C-7.57320312 5.64800781 -6.77140625 5.04601563 -5.9453125 4.42578125 C-3.9687329 2.94334655 -1.98695558 1.46848138 0 0 Z " fill="#AF429E" transform="translate(151,58)"/>
<path d="M0 0 C1.38756905 4.50272406 0.24695399 8.26327805 -0.75 12.75 C-2.79364633 22.55361754 -3.86743418 32.35195625 -4.75 42.3125 C-4.81457397 43.04102173 -4.87914795 43.76954346 -4.94567871 44.5201416 C-5.31087708 48.67899347 -5.66139999 52.83888677 -6 57 C-8.64 57 -11.28 57 -14 57 C-15.2413197 17.59959322 -15.2413197 17.59959322 -4.9375 5.98828125 C-4.298125 5.33214844 -3.65875 4.67601562 -3 4 C-1.9822791 2.68014321 -0.97592894 1.35105162 0 0 Z " fill="#59238D" transform="translate(53,181)"/>
<path d="M0 0 C2.96828429 3.35128872 4.29795092 5.60295579 5 10 C4.443125 10.40089844 3.88625 10.80179688 3.3125 11.21484375 C-8.33113651 19.88856622 -14.74259659 29.53711651 -20 43 C-22.64 43 -25.28 43 -28 43 C-29 41 -29 41 -28.1796875 38.27734375 C-22.55903354 23.88914275 -15.52779844 10.26389922 -1 3 C-0.67 2.01 -0.34 1.02 0 0 Z " fill="#F79521" transform="translate(238,181)"/>
<path d="M0 0 C2.8455204 3.40833646 5.18211602 6.83466984 7.36328125 10.69921875 C7.99596924 11.81417725 8.62865723 12.92913574 9.28051758 14.07788086 C9.95784695 15.28108617 10.63517438 16.48429258 11.3125 17.6875 C12.37506574 19.56332805 13.43924969 21.43823231 14.50346375 23.31312561 C15.23387677 24.6002239 15.96378126 25.88761089 16.69319153 27.17527771 C20.53166432 33.94937475 24.4185997 40.69515467 28.3125 47.4375 C28.94003174 48.52571045 29.56756348 49.6139209 30.21411133 50.73510742 C33.36931558 56.25563201 33.36931558 56.25563201 36.75073242 61.63696289 C37.16299072 62.41676514 37.57524902 63.19656738 38 64 C36.5361389 68.39158329 34.02168662 68.87947433 30 71 C26.16407966 63.589748 22.79198172 56.03812202 19.55078125 48.3515625 C18.80274483 46.58913712 18.80274483 46.58913712 18.03959656 44.79110718 C16.72793492 41.699729 15.41887398 38.60727938 14.11132812 35.51416016 C12.26160564 31.13972476 10.40789906 26.76697919 8.55326843 22.3946228 C7.56903148 20.07366398 6.58623977 17.75209162 5.60505676 15.42984009 C4.9387751 13.85702774 4.9387751 13.85702774 4.2590332 12.25244141 C3.86996292 11.3321817 3.48089264 10.411922 3.08003235 9.46377563 C2.04857827 7.02533849 2.04857827 7.02533849 0.85881042 4.85922241 C0 3 0 3 0 0 Z " fill="#B44EA3" transform="translate(138,9)"/>
<path d="M0 0 C3.93412698 4.533613 6.78616993 9.56135261 9.75 14.75 C10.25660156 15.62527344 10.76320313 16.50054687 11.28515625 17.40234375 C15 23.86076482 15 23.86076482 15 25 C3.93339044 24.4340092 -7.00830029 23.40116964 -18 22 C-8.76896109 6.38805862 -8.76896109 6.38805862 -2 2 C-1.34 2 -0.68 2 0 2 C0 1.34 0 0.68 0 0 Z " fill="#FEEF14" transform="translate(252,205)"/>
<path d="M0 0 C9.17618442 0.40451857 18.03054531 0.86441555 27 3 C26.67 6.3 26.34 9.6 26 13 C17.09 13 8.18 13 -1 13 C-0.67 8.71 -0.34 4.42 0 0 Z " fill="#F03341" transform="translate(155,224)"/>
<path d="M0 0 C3 1 3 1 5 4 C5 5.32 5 6.64 5 8 C3.4609375 9.3515625 3.4609375 9.3515625 1.375 10.625 C-3.71934852 14.15672034 -6.1037277 18.64097386 -9 24 C-9.66 24.99 -10.32 25.98 -11 27 C-12.9453125 27.29296875 -12.9453125 27.29296875 -15.125 27.1875 C-16.40375 27.125625 -17.6825 27.06375 -19 27 C-18.8178188 18.80184592 -14.21441728 12.28782975 -8.60546875 6.55078125 C-2.98308081 1.4915404 -2.98308081 1.4915404 0 0 Z " fill="#F79620" transform="translate(247,199)"/>
<path d="M0 0 C0.0272367 2.52090778 0.04695207 5.04151457 0.0625 7.5625 C0.07087891 8.26697266 0.07925781 8.97144531 0.08789062 9.69726562 C0.09272461 10.74624023 0.09272461 10.74624023 0.09765625 11.81640625 C0.10551147 12.76688843 0.10551147 12.76688843 0.11352539 13.73657227 C-0.04226709 16.84270581 -0.5601742 19.92121937 -1 23 C-6.94 23 -12.88 23 -19 23 C-16.13907551 17.99338214 -13.47443817 13.72465521 -10 9.25 C-9.57460938 8.68667969 -9.14921875 8.12335938 -8.7109375 7.54296875 C-2.89768026 0 -2.89768026 0 0 0 Z " fill="#58248C" transform="translate(30,215)"/>
<path d="M0 0 C12.22289858 0.62218367 24.29933347 2.03553289 36.4375 3.5625 C38.34435319 3.79921393 40.251254 4.03554453 42.15820312 4.27148438 C46.77269503 4.84324956 51.38651612 5.42015974 56 6 C56 6.33 56 6.66 56 7 C37.52 7 19.04 7 0 7 C0 4.69 0 2.38 0 0 Z " fill="#FBA824" transform="translate(208,230)"/>
<path d="M0 0 C2.6015625 -0.29296875 2.6015625 -0.29296875 5.625 -0.1875 C7.12933594 -0.14689453 7.12933594 -0.14689453 8.6640625 -0.10546875 C9.43492187 -0.07066406 10.20578125 -0.03585938 11 0 C10.45730469 1.07378906 9.91460937 2.14757812 9.35546875 3.25390625 C8.63270385 4.69004949 7.91005372 6.1262505 7.1875 7.5625 C6.65286133 8.61920898 6.65286133 8.61920898 6.10742188 9.69726562 C3.90907591 14.07378925 1.88336074 18.47874598 0 23 C-2.31 23 -4.62 23 -7 23 C-8.47233966 18.45719377 -6.88748577 15.20089547 -5.1875 10.9375 C-4.77661133 9.85758789 -4.77661133 9.85758789 -4.35742188 8.75585938 C-3.13080336 5.58783026 -1.89058179 2.83587268 0 0 Z " fill="#EF5322" transform="translate(209,200)"/>
<path d="M0 0 C1.62227961 4.86683882 0.52165825 9.17680925 -1 14 C-3.11970353 17.72734775 -5.70965858 20.95062575 -8.4375 24.25 C-9.88528984 26.07068065 -11.33189679 27.89230252 -12.77734375 29.71484375 C-13.49132324 30.60284668 -14.20530273 31.49084961 -14.94091797 32.40576172 C-17.89906897 36.13273736 -20.70922625 39.95944998 -23.5 43.8125 C-23.96204834 44.44639648 -24.42409668 45.08029297 -24.90014648 45.73339844 C-25.9354889 47.15410153 -26.96811405 48.57678442 -28 50 C-28.33 49.34 -28.66 48.68 -29 48 C-27.92700195 45.71948242 -27.92700195 45.71948242 -26.23828125 42.85546875 C-25.61912842 41.79513428 -24.99997559 40.7347998 -24.36206055 39.64233398 C-23.67906431 38.4906096 -22.99587334 37.33900068 -22.3125 36.1875 C-21.62524835 35.01748363 -20.93881174 33.84698815 -20.25317383 32.67602539 C-19.20457425 30.88523072 -18.15546764 29.09476214 -17.1033783 27.30601501 C-14.83061434 23.43832437 -12.5998448 19.54957369 -10.3984375 15.640625 C-9.85405029 14.67487549 -9.30966309 13.70912598 -8.7487793 12.71411133 C-7.7233074 10.89039093 -6.70122425 9.0647601 -5.68286133 7.23706055 C-4.9948645 6.01950073 -4.9948645 6.01950073 -4.29296875 4.77734375 C-3.8961792 4.06827881 -3.49938965 3.35921387 -3.09057617 2.62866211 C-2 1 -2 1 0 0 Z " fill="#5E2D90" transform="translate(34,184)"/>
<path d="M0 0 C6.125 -0.4375 6.125 -0.4375 9 1 C8.72285156 1.82886719 8.44570312 2.65773437 8.16015625 3.51171875 C7.34922236 5.94998126 6.54430122 8.38962667 5.74609375 10.83203125 C5.30992831 12.15886484 4.87373002 13.48568764 4.4375 14.8125 C4.21642578 15.49248047 3.99535156 16.17246094 3.76757812 16.87304688 C2.11288597 21.88711403 2.11288597 21.88711403 1 23 C-4.52941176 23.23529412 -4.52941176 23.23529412 -7 22 C-6.30884575 14.3973032 -4.25361614 6.38042421 0 0 Z " fill="#EF5627" transform="translate(190,198)"/>
<path d="M0 0 C1.918125 0.4021875 1.918125 0.4021875 3.875 0.8125 C5.14477059 4.62181176 4.39574507 6.62868993 3.4375 10.5 C3.00630859 12.26923828 3.00630859 12.26923828 2.56640625 14.07421875 C2.33824219 14.97785156 2.11007813 15.88148438 1.875 16.8125 C-0.39641109 16.69847936 -2.66714552 16.57091495 -4.9375 16.4375 C-6.20207031 16.36789063 -7.46664062 16.29828125 -8.76953125 16.2265625 C-12.125 15.8125 -12.125 15.8125 -15.125 13.8125 C-5.9558388 -0.12309365 -5.9558388 -0.12309365 0 0 Z " fill="#C43A83" transform="translate(83.125,191.1875)"/>
<path d="M0 0 C3 1 3 1 4.25 2.8125 C5.15502775 5.45216427 4.96794462 6.40942375 4 9 C2.41772461 10.64746094 2.41772461 10.64746094 0.40234375 12.234375 C-0.31630859 12.80800781 -1.03496094 13.38164063 -1.77539062 13.97265625 C-2.53013672 14.55917969 -3.28488281 15.14570312 -4.0625 15.75 C-4.82111328 16.35199219 -5.57972656 16.95398438 -6.36132812 17.57421875 C-8.23416665 19.05835494 -10.11369204 20.53304768 -12 22 C-14.64107354 19.53258609 -15.79641403 17.42559084 -17 14 C-12.64258391 10.02587514 -8.25423767 6.09442567 -3.625 2.4375 C-2.99851563 1.94121094 -2.37203125 1.44492188 -1.7265625 0.93359375 C-1.15679687 0.62550781 -0.58703125 0.31742187 0 0 Z " fill="#C93C8D" transform="translate(157,76)"/>
<path d="M0 0 C0.99 2.64 1.98 5.28 3 8 C0.39656713 9.95931542 -2.2077111 11.91748882 -4.8125 13.875 C-5.55048828 14.43058594 -6.28847656 14.98617187 -7.04882812 15.55859375 C-7.76103516 16.09355469 -8.47324219 16.62851563 -9.20703125 17.1796875 C-9.8616333 17.67194824 -10.51623535 18.16420898 -11.19067383 18.67138672 C-12.76212481 19.82532495 -14.37781523 20.91854349 -16 22 C-17.76285448 19.53200372 -18.97012026 17.79317137 -19.0859375 14.71875 C-17.34751729 10.36644617 -13.80052774 8.34644281 -10.0625 5.6875 C-9.32064453 5.13771484 -8.57878906 4.58792969 -7.81445312 4.02148438 C-2.30427019 0 -2.30427019 0 0 0 Z " fill="#943784" transform="translate(156,68)"/>
<path d="M0 0 C4.0212935 1.34043117 4.88950169 3.82244356 6.75 7.375 C7.07871094 7.96539062 7.40742188 8.55578125 7.74609375 9.1640625 C8.58356782 10.73300126 9.29992603 12.36512138 10 14 C8.39362828 18.81911517 4.4007634 19.70664443 0 22 C-2.31 16.72 -4.62 11.44 -7 6 C-2 1 -2 1 0 0 Z " fill="#CA4190" transform="translate(175,75)"/>
<path d="M0 0 C2.05078125 0.03255208 4.1015625 0.06510417 6.15234375 0.09765625 C6.30910015 7.81355442 5.82687476 15.41282086 5.15234375 23.09765625 C2.18234375 23.09765625 -0.78765625 23.09765625 -3.84765625 23.09765625 C-3.70948666 19.45148954 -3.56084091 15.80582551 -3.41015625 12.16015625 C-3.35118164 10.5987793 -3.35118164 10.5987793 -3.29101562 9.00585938 C-3.24912109 8.01650391 -3.20722656 7.02714844 -3.1640625 6.0078125 C-3.12740479 5.09136963 -3.09074707 4.17492676 -3.05297852 3.23071289 C-2.79536399 0.55440127 -2.69655655 0.14252413 0 0 Z " fill="#833475" transform="translate(68.84765625,213.90234375)"/>
<path d="M0 0 C2.74084921 2.36709704 3.7367158 4.64405806 5 8 C4.1646875 8.52787109 4.1646875 8.52787109 3.3125 9.06640625 C-1.63168357 12.26509258 -6.0648677 15.66054318 -10.37109375 19.6796875 C-12 21 -12 21 -14 21 C-14.99 18.36 -15.98 15.72 -17 13 C-11.63820705 7.95106821 -6.61519148 3.30759574 0 0 Z " fill="#EF5525" transform="translate(225,160)"/>
<path d="M0 0 C2.97 0.33 5.94 0.66 9 1 C8.67 8.26 8.34 15.52 8 23 C5.03 23 2.06 23 -1 23 C-1.1094017 15.24463474 -0.91988309 7.70402087 0 0 Z " fill="#C33781" transform="translate(75,214)"/>
<path d="M0 0 C1.49821059 3.37097383 2 5.20442119 2 9 C-0.01171875 11 -0.01171875 11 -2.6875 13 C-3.55761719 13.66 -4.42773438 14.32 -5.32421875 15 C-6.64873047 15.99 -6.64873047 15.99 -8 17 C-8.87269531 17.763125 -9.74539062 18.52625 -10.64453125 19.3125 C-11.42183594 19.869375 -12.19914063 20.42625 -13 21 C-16 20 -16 20 -17.25 18.1875 C-18.18631848 15.45657111 -18.11551029 14.66483015 -17 12 C-15.07711202 10.15747152 -13.20483465 8.51646201 -11.125 6.875 C-10.58230469 6.43285156 -10.03960937 5.99070312 -9.48046875 5.53515625 C-2.64095544 0 -2.64095544 0 0 0 Z " fill="#C93D8E" transform="translate(167,93)"/>
<path d="M0 0 C6.04736842 8.06315789 6.04736842 8.06315789 5.96875 12.9375 C4.45766488 16.15464897 1.65254228 17.63907027 -1.25 19.5 C-5.31197363 22.17451298 -9.24743145 24.89637188 -13 28 C-13.66 27.67 -14.32 27.34 -15 27 C-10.05 18.09 -5.1 9.18 0 0 Z " fill="#0854B5" transform="translate(131,12)"/>
<path d="M0 0 C2 1 2 1 3.125 4.0625 C3.41375 5.031875 3.7025 6.00125 4 7 C3.50371094 7.42410156 3.00742188 7.84820312 2.49609375 8.28515625 C-7.0557434 16.53199857 -15.09955761 25.46542291 -22.69140625 35.5625 C-23.13895264 36.15530762 -23.58649902 36.74811523 -24.04760742 37.35888672 C-24.91791662 38.51684456 -25.78162673 39.67979827 -26.63793945 40.84814453 C-29.66951994 44.88983998 -29.66951994 44.88983998 -33 46 C-28.21020905 35.74612714 -19.76476095 26.71131974 -12.89990234 17.78930664 C-8.43674774 11.96735002 -4.15724193 6.044171 0 0 Z " fill="#B14AA0" transform="translate(130,78)"/>
<path d="M0 0 C3.0916909 2.52956528 3.90931332 5.22454612 5 9 C4.50371094 9.35191406 4.00742188 9.70382813 3.49609375 10.06640625 C-1.45644964 13.665693 -5.79288368 17.55623339 -10 22 C-12.49831469 19.0671958 -13.84085466 16.89337695 -14 13 C-12.05078125 10.4296875 -12.05078125 10.4296875 -9.3125 7.875 C-8.42175781 7.02679688 -7.53101563 6.17859375 -6.61328125 5.3046875 C-4.46980633 3.41432846 -2.32092842 1.66324144 0 0 Z " fill="#EA4591" transform="translate(176,118)"/>
<path d="M0 0 C2.97 0 5.94 0 9 0 C8.67 6.6 8.34 13.2 8 20 C5.03 20 2.06 20 -1 20 C-1.11381955 13.23405981 -0.88021369 6.71162938 0 0 Z " fill="#C63787" transform="translate(93,217)"/>
<path d="M0 0 C0.99 0.33 1.98 0.66 3 1 C3.66 3.31 4.32 5.62 5 8 C0.71 11.96 -3.58 15.92 -8 20 C-11 19 -11 19 -12.25 17.1875 C-13.16981401 14.50470914 -13.00491965 13.63671774 -12 11 C-10.0390625 8.7109375 -10.0390625 8.7109375 -7.625 6.375 C-6.83351562 5.59898437 -6.04203125 4.82296875 -5.2265625 4.0234375 C-3 2 -3 2 0 0 Z " fill="#D51A5D" transform="translate(179,127)"/>
<path d="M0 0 C2.97 0 5.94 0 9 0 C8.35861776 2.98019006 7.7121269 5.95910676 7.0625 8.9375 C6.88009766 9.78763672 6.69769531 10.63777344 6.50976562 11.51367188 C6.33251953 12.32255859 6.15527344 13.13144531 5.97265625 13.96484375 C5.81031494 14.7137085 5.64797363 15.46257324 5.48071289 16.23413086 C5 18 5 18 4 19 C1.32941149 19.14115161 -1.32432238 19.04247107 -4 19 C-3.63176001 12.09232563 -2.76081837 6.3618858 0 0 Z " fill="#D51C5D" transform="translate(134,195)"/>
<path d="M0 0 C2.81763206 3.18514929 3.93951086 5.71626935 4 10 C2.19921875 12.44921875 2.19921875 12.44921875 -0.3125 14.6875 C-2.96104366 17.09488898 -5.0053477 19.00802155 -7 22 C-7.66 22 -8.32 22 -9 22 C-10.32 19.03 -11.64 16.06 -13 13 C-8.66666667 8.66666667 -4.33333333 4.33333333 0 0 Z " fill="#ED3744" transform="translate(191,152)"/>
<path d="M0 0 C2.64 0.33 5.28 0.66 8 1 C8 7.27 8 13.54 8 20 C5.03 20 2.06 20 -1 20 C-1.02722517 17.79173622 -1.04649729 15.58337362 -1.0625 13.375 C-1.07410156 12.14523438 -1.08570312 10.91546875 -1.09765625 9.6484375 C-1.00863924 6.32276209 -0.63686087 3.25952412 0 0 Z " fill="#E8408D" transform="translate(102,217)"/>
<path d="M0 0 C2.32341125 1.81832185 3.01630563 3.04931622 3.95703125 5.89453125 C4 9 4 9 2.19921875 11.44921875 C1.37035156 12.18785156 0.54148438 12.92648438 -0.3125 13.6875 C-2.96104366 16.09488898 -5.0053477 18.00802155 -7 21 C-10 20 -10 20 -11.25 18.25 C-12.24011237 15.27966289 -11.98148952 13.98732838 -11 11 C-9.19042818 8.90812369 -7.44366434 7.06342645 -5.4375 5.1875 C-4.91736328 4.68541016 -4.39722656 4.18332031 -3.86132812 3.66601562 C-2.5831143 2.43470873 -1.29272853 1.2160593 0 0 Z " fill="#D61C5F" transform="translate(187,144)"/>
<path d="M0 0 C3.04662882 2.56417147 4.20951098 5.40969231 5.6875 9.0625 C6.34298828 10.65771484 6.34298828 10.65771484 7.01171875 12.28515625 C8 15 8 15 8 17 C5.9163691 16.85848172 3.83310062 16.71162064 1.75 16.5625 C0.58984375 16.48128906 -0.5703125 16.40007812 -1.765625 16.31640625 C-4.30977376 16.06752213 -6.55953248 15.71885058 -9 15 C-8.39889717 10.99264783 -6.33397972 8.44530629 -3.9375 5.25 C-2.83728516 3.77273437 -2.83728516 3.77273437 -1.71484375 2.265625 C-1.14894531 1.51796875 -0.58304688 0.7703125 0 0 Z " fill="#F05526" transform="translate(202,179)"/>
<path d="M0 0 C3.63 0.33 7.26 0.66 11 1 C10.68853528 2.89600369 10.37578283 4.79179587 10.0625 6.6875 C9.88847656 7.74324219 9.71445313 8.79898438 9.53515625 9.88671875 C9.06832879 12.60249604 8.55577384 15.30124235 8 18 C5.36 18 2.72 18 0 18 C-1.44715727 14.12813552 -0.5441918 11.1767672 0.4375 7.25 C0.72496094 6.07953125 1.01242188 4.9090625 1.30859375 3.703125 C1.53675781 2.81109375 1.76492187 1.9190625 2 1 C1.34 0.67 0.68 0.34 0 0 Z " fill="#E8448F" transform="translate(104,193)"/>
<path d="M0 0 C2.97 0 5.94 0 9 0 C8.67 5.61 8.34 11.22 8 17 C5.03 17 2.06 17 -1 17 C-1.02709444 14.91673869 -1.04643873 12.83337559 -1.0625 10.75 C-1.07410156 9.58984375 -1.08570312 8.4296875 -1.09765625 7.234375 C-1 4 -1 4 0 0 Z " fill="#E8428F" transform="translate(120,220)"/>
<path d="M0 0 C3.0625 0.125 3.0625 0.125 5.0625 1.125 C4.75325786 3.22964793 4.4399944 5.3337053 4.125 7.4375 C3.95097656 8.60925781 3.77695313 9.78101563 3.59765625 10.98828125 C3.0625 14.125 3.0625 14.125 2.0625 17.125 C-1.3125 17.25 -1.3125 17.25 -4.9375 17.125 C-5.5975 16.465 -6.2575 15.805 -6.9375 15.125 C-6.51171875 11.90234375 -6.51171875 11.90234375 -5.625 8.0625 C-5.19767578 6.15791016 -5.19767578 6.15791016 -4.76171875 4.21484375 C-3.6791678 0.15656033 -3.6791678 0.15656033 0 0 Z " fill="#C73988" transform="translate(100.9375,192.875)"/>
<path d="M0 0 C2.23279207 1.92652414 2.88723071 3.74185559 3.765625 6.5234375 C1.99831051 7.8406719 0.22664739 9.15207338 -1.546875 10.4609375 C-2.53300781 11.19183594 -3.51914063 11.92273438 -4.53515625 12.67578125 C-7.234375 14.5234375 -7.234375 14.5234375 -10.234375 15.5234375 C-11.224375 12.5534375 -12.214375 9.5834375 -13.234375 6.5234375 C-11.49781405 5.29586855 -9.74457123 4.09186897 -7.984375 2.8984375 C-7.00984375 2.22554688 -6.0353125 1.55265625 -5.03125 0.859375 C-2.234375 -0.4765625 -2.234375 -0.4765625 0 0 Z " fill="#D71F61" transform="translate(199.234375,114.4765625)"/>
<path d="M0 0 C4.44762316 5.29932199 7.72807627 11.18800192 11.13769531 17.17529297 C12.2532 19.13060913 13.38008821 21.07905553 14.5078125 23.02734375 C15.21944763 24.27043422 15.93040921 25.51391057 16.640625 26.7578125 C17.28547852 27.8833252 17.93033203 29.00883789 18.59472656 30.16845703 C20 33 20 33 20 36 C18.68 36.66 17.36 37.32 16 38 C11.84192748 30.14022878 8.19458268 22.07764269 4.625 13.9375 C3.9455835 12.40210571 3.9455835 12.40210571 3.25244141 10.83569336 C2.83140137 9.86768799 2.41036133 8.89968262 1.9765625 7.90234375 C1.59580566 7.03085693 1.21504883 6.15937012 0.82275391 5.26147461 C0 3 0 3 0 0 Z " fill="#7C36C1" transform="translate(138,9)"/>
<path d="M0 0 C2.64 0 5.28 0 8 0 C9 1 9 1 9.1328125 2.85546875 C9.11775595 7.34984745 8.90745294 11.5761669 8 16 C5.36 16 2.72 16 0 16 C0 10.72 0 5.44 0 0 Z " fill="#D51859" transform="translate(128,221)"/>
<path d="M0 0 C2.97 0 5.94 0 9 0 C8.67 4.62 8.34 9.24 8 14 C5.36 14 2.72 14 0 14 C0 9.38 0 4.76 0 0 Z " fill="#D61C5D" transform="translate(146,223)"/>
<path d="M0 0 C2.71843438 3.62457917 3.41789544 4.80884715 4 9 C2.73461631 9.84158536 1.46246221 10.67299748 0.1875 11.5 C-0.52019531 11.9640625 -1.22789062 12.428125 -1.95703125 12.90625 C-4 14 -4 14 -7 14 C-7.99 11.69 -8.98 9.38 -10 7 C-6.7 4.69 -3.4 2.38 0 0 Z " fill="#EA4994" transform="translate(185,90)"/>
<path d="M0 0 C0.99 0.33 1.98 0.66 3 1 C4.6875 4.5625 4.6875 4.5625 6 8 C4.71186658 8.83878455 3.41936744 9.67086783 2.125 10.5 C1.40570313 10.9640625 0.68640625 11.428125 -0.0546875 11.90625 C-2 13 -2 13 -4 13 C-4.99 10.36 -5.98 7.72 -7 5 C-1.82421875 0.99609375 -1.82421875 0.99609375 0 0 Z " fill="#E249A1" transform="translate(175,75)"/>
<path d="M0 0 C1.31267074 3.93801223 1.00519909 5.95048368 0 10 C-1.84255576 13.11153355 -4.04154349 15.87900981 -6.3125 18.6875 C-6.89451172 19.43322266 -7.47652344 20.17894531 -8.07617188 20.94726562 C-10.87486619 24.5003079 -13.69013168 27.90261706 -17 31 C-15.24587669 26.1100138 -12.71996079 21.70415687 -10.1875 17.1875 C-9.76146484 16.41857422 -9.33542969 15.64964844 -8.89648438 14.85742188 C-6.07920379 9.80677514 -3.11277432 4.87387246 0 0 Z " fill="#1F63AC" transform="translate(22,203)"/>
<path d="M0 0 C3.5 0.125 3.5 0.125 4.5 1.125 C4.64193337 4.12831018 4.54236378 7.11717134 4.5 10.125 C1.53 10.125 -1.44 10.125 -4.5 10.125 C-4.59765625 3.19140625 -4.59765625 3.19140625 -4.5 1.125 C-3.5 0.125 -3.5 0.125 0 0 Z " fill="#EF5326" transform="translate(185.5,226.875)"/>
<path d="M0 0 C2.71595986 3.1540179 3.96846241 4.87384964 5 9 C2.36 10.65 -0.28 12.3 -3 14 C-4.32 11.03 -5.64 8.06 -7 5 C-6.030625 4.54625 -5.06125 4.0925 -4.0625 3.625 C-0.92920418 2.34213779 -0.92920418 2.34213779 0 0 Z " fill="#CA4592" transform="translate(171,66)"/>
<path d="M0 0 C0.33 0 0.66 0 1 0 C1 4.29 1 8.58 1 13 C-2.3 13 -5.6 13 -9 13 C-6.39231583 8.17095524 -3.68069634 4.07860946 0 0 Z " fill="#0C55A1" transform="translate(20,225)"/>
<path d="M0 0 C6.75 -0.125 6.75 -0.125 9 1 C9 3.31 9 5.62 9 8 C6.03 8 3.06 8 0 8 C0 5.36 0 2.72 0 0 Z " fill="#F05627" transform="translate(199,229)"/>
<path d="M0 0 C3.52110792 0.3094539 7.04182924 0.62311458 10.5625 0.9375 C11.55314453 1.02451172 12.54378906 1.11152344 13.56445312 1.20117188 C18.73763531 1.66521147 23.86752079 2.20097448 29 3 C29 3.33 29 3.66 29 4 C19.43 4 9.86 4 0 4 C0 2.68 0 1.36 0 0 Z " fill="#FEF016" transform="translate(235,233)"/>
<path d="M0 0 C1.14871801 3.44615403 0.80416945 5.09890109 0.125 8.625 C-0.05804688 9.60726562 -0.24109375 10.58953125 -0.4296875 11.6015625 C-1 14 -1 14 -2 15 C-4.69082872 14.82364548 -7.32851446 14.38164079 -10 14 C-6.84577733 9.17403931 -3.71080883 4.42442592 0 0 Z " fill="#893C7B" transform="translate(78,192)"/>
<path d="M0 0 C3 1 3 1 5 4 C4.625 6.6875 4.625 6.6875 4 9 C2.02 9.66 0.04 10.32 -2 11 C-3.32789969 8.8128711 -4.04752686 7.52279544 -3.8125 4.9375 C-2.89199398 2.74244718 -1.78403777 1.55133719 0 0 Z " fill="#973C89" transform="translate(166,60)"/>
<path d="M0 0 C2.97 0.33 5.94 0.66 9 1 C9 2.98 9 4.96 9 7 C6.03 7 3.06 7 0 7 C0 4.69 0 2.38 0 0 Z " fill="#F69420" transform="translate(208,230)"/>
<path d="M0 0 C2.72426311 2.35277269 3.8141763 4.62496331 5 8 C3.02 8.99 1.04 9.98 -1 11 C-2.625 8.25 -2.625 8.25 -4 5 C-3.3125 2.6875 -3.3125 2.6875 -2 1 C-1.34 0.67 -0.68 0.34 0 0 Z " fill="#9A408A" transform="translate(158,44)"/>
<path d="M0 0 C3 1 3 1 4.1875 2.875 C5 5 5 5 5 8 C3.02 8.99 3.02 8.99 1 10 C-1.29379749 6.55930376 -2 5.27709699 -2 1 C-1.34 0.67 -0.68 0.34 0 0 Z " fill="#692EA7" transform="translate(153,37)"/>
<path d="M0 0 C2.97 0.33 5.94 0.66 9 1 C9 2.32 9 3.64 9 5 C6.03 5 3.06 5 0 5 C0 3.35 0 1.7 0 0 Z " fill="#F79723" transform="translate(226,232)"/>
<path d="M0 0 C2.89932357 2.39509338 3.50168276 4.31245243 4 8 C1.36 7.67 -1.28 7.34 -4 7 C-2.68 4.69 -1.36 2.38 0 0 Z " fill="#F27F35" transform="translate(206,188)"/>
<path d="M0 0 C-1.49518717 4.73475936 -1.49518717 4.73475936 -3.84375 5.96875 C-4.91109375 6.47921875 -4.91109375 6.47921875 -6 7 C-7.28016835 8.00435972 -8.53128122 9.04690261 -9.75 10.125 C-10.36359375 10.66382812 -10.9771875 11.20265625 -11.609375 11.7578125 C-12.06828125 12.16773437 -12.5271875 12.57765625 -13 13 C-11.46781315 9.36938333 -9.2816856 7.0136227 -6.5 4.25 C-5.7059375 3.45078125 -4.911875 2.6515625 -4.09375 1.828125 C-2 0 -2 0 0 0 Z " fill="#CD4695" transform="translate(138,93)"/>
<path d="M0 0 C3 4 3 4 3 6 C0 8 0 8 -3 8 C-3 8.66 -3 9.32 -3 10 C-3.66 9.67 -4.32 9.34 -5 9 C-3.35 6.03 -1.7 3.06 0 0 Z " fill="#2572D0" transform="translate(131,12)"/>
<path d="M0 0 C5.38323353 6.49700599 5.38323353 6.49700599 7 10 C6.0703125 12.15234375 6.0703125 12.15234375 5 14 C4.15973604 12.23244474 3.32801278 10.46082737 2.5 8.6875 C2.0359375 7.70136719 1.571875 6.71523437 1.09375 5.69921875 C0 3 0 3 0 0 Z " fill="#427DC8" transform="translate(138,9)"/>
<path d="M0 0 C0.66 0 1.32 0 2 0 C5.11450382 4.15267176 5.11450382 4.15267176 4.6875 7.3125 C4.460625 7.869375 4.23375 8.42625 4 9 C3.34 9 2.68 9 2 9 C0.50178941 5.62902617 0 3.79557881 0 0 Z " fill="#6D33A9" transform="translate(144,21)"/>
<path d="" fill="#8AB0DB" transform="translate(0,0)"/>
<path d="" fill="#78A7E1" transform="translate(0,0)"/>
<path d="" fill="#E0EBF8" transform="translate(0,0)"/>
<path d="" fill="#1763B3" transform="translate(0,0)"/>
</svg>
